HIERARCHY
ROOT Hips
{
	OFFSET -14.64140 90.27770 -84.91600
	CHANNELS 6 Xposition Yposition Zposition Zrotation Xrotation Yrotation
	JOINT Spine
	{
		OFFSET 0.00000 13.20850 -1.60436
		CHANNELS 3 Zrotation Xrotation Yrotation
		JOINT Spine1
		{
			OFFSET 0.00000 8.61716 0.00000
			CHANNELS 3 Zrotation Xrotation Yrotation
			JOINT Spine2
			{
				OFFSET 0.00000 8.61717 0.00000
				CHANNELS 3 Zrotation Xrotation Yrotation
				JOINT Spine3
				{
					OFFSET 0.00000 8.61717 0.00000
					CHANNELS 3 Zrotation Xrotation Yrotation
					JOINT Neck
					{
						OFFSET 0.00000 11.07920 1.10792
						CHANNELS 3 Zrotation Xrotation Yrotation
						JOINT Neck1
						{
							OFFSET 0.00000 7.08032 0.00000
							CHANNELS 3 Zrotation Xrotation Yrotation
							JOINT Head
							{
								OFFSET 0.00000 7.08031 0.00000
								CHANNELS 3 Zrotation Xrotation Yrotation
								End site
								{
									OFFSET 0.00000 0.00000 0.00000
								}
							}
						}
					}
					JOINT RightShoulder
					{
						OFFSET -0.01000 7.91373 5.19711
						CHANNELS 3 Zrotation Xrotation Yrotation
						JOINT RightArm
						{
							OFFSET -18.41580 0.00000 0.00000
							CHANNELS 3 Zrotation Xrotation Yrotation
							JOINT RightForeArm
							{
								OFFSET -29.11090 0.00000 0.00000
								CHANNELS 3 Zrotation Xrotation Yrotation
								JOINT RightHand
								{
									OFFSET -24.65040 0.00000 0.00000
									CHANNELS 3 Zrotation Xrotation Yrotation
									JOINT RightHandThumb1
									{
										OFFSET -5.35114 -0.85590 3.97906
										CHANNELS 3 Zrotation Xrotation Yrotation
										JOINT RightHandThumb2
										{
											OFFSET -4.52789 0.00000 0.00000
											CHANNELS 3 Zrotation Xrotation Yrotation
											JOINT RightHandThumb3
											{
												OFFSET -2.46976 0.00000 0.00000
												CHANNELS 3 Zrotation Xrotation Yrotation
												End site
												{
													OFFSET 0.00000 0.00000 0.00000
												}
											}
										}
									}
									JOINT RightHandIndex1
									{
										OFFSET -14.26970 0.00000 2.88139
										CHANNELS 3 Zrotation Xrotation Yrotation
										JOINT RightHandIndex2
										{
											OFFSET -5.48836 0.00000 0.00000
											CHANNELS 3 Zrotation Xrotation Yrotation
											JOINT RightHandIndex3
											{
												OFFSET -3.01859 0.00000 0.00000
												CHANNELS 3 Zrotation Xrotation Yrotation
												End site
												{
													OFFSET 0.00000 0.00000 0.00000
												}
											}
										}
									}
									JOINT RightHandMiddle1
									{
										OFFSET -14.26970 0.00000 -0.09147
										CHANNELS 3 Zrotation Xrotation Yrotation
										JOINT RightHandMiddle2
										{
											OFFSET -6.17441 0.00000 0.00000
											CHANNELS 3 Zrotation Xrotation Yrotation
											JOINT RightHandMiddle3
											{
												OFFSET -3.56743 0.00000 0.00000
												CHANNELS 3 Zrotation Xrotation Yrotation
												End site
												{
													OFFSET 0.00000 0.00000 0.00000
												}
											}
										}
									}
									JOINT RightHandRing1
									{
										OFFSET -12.69180 0.00000 -3.06433
										CHANNELS 3 Zrotation Xrotation Yrotation
										JOINT RightHandRing2
										{
											OFFSET -5.62556 0.00000 0.00000
											CHANNELS 3 Zrotation Xrotation Yrotation
											JOINT RightHandRing3
											{
												OFFSET -3.56744 0.00000 0.00000
												CHANNELS 3 Zrotation Xrotation Yrotation
												End site
												{
													OFFSET 0.00000 0.00000 0.00000
												}
											}
										}
									}
									JOINT RightHandPinky1
									{
										OFFSET -11.11390 0.00000 -6.03719
										CHANNELS 3 Zrotation Xrotation Yrotation
										JOINT RightHandPinky2
										{
											OFFSET -4.52789 0.00000 0.00000
											CHANNELS 3 Zrotation Xrotation Yrotation
											JOINT RightHandPinky3
											{
												OFFSET -2.46976 0.00000 0.00000
												CHANNELS 3 Zrotation Xrotation Yrotation
												End site
												{
													OFFSET 0.00000 0.00000 0.00000
												}
											}
										}
									}
								}
							}
						}
					}
					JOINT LeftShoulder
					{
						OFFSET 0.01000 7.91373 5.19711
						CHANNELS 3 Zrotation Xrotation Yrotation
						JOINT LeftArm
						{
							OFFSET 18.41580 0.00000 0.00000
							CHANNELS 3 Zrotation Xrotation Yrotation
							JOINT LeftForeArm
							{
								OFFSET 29.11090 0.00000 0.00000
								CHANNELS 3 Zrotation Xrotation Yrotation
								JOINT LeftHand
								{
									OFFSET 24.65040 0.00000 0.00000
									CHANNELS 3 Zrotation Xrotation Yrotation
									JOINT LeftHandThumb1
									{
										OFFSET 5.35114 -0.85590 3.97906
										CHANNELS 3 Zrotation Xrotation Yrotation
										JOINT LeftHandThumb2
										{
											OFFSET 4.52789 0.00000 0.00000
											CHANNELS 3 Zrotation Xrotation Yrotation
											JOINT LeftHandThumb3
											{
												OFFSET 2.46977 0.00000 0.00000
												CHANNELS 3 Zrotation Xrotation Yrotation
												End site
												{
													OFFSET 0.00000 0.00000 0.00000
												}
											}
										}
									}
									JOINT LeftHandIndex1
									{
										OFFSET 14.26970 0.00000 2.88139
										CHANNELS 3 Zrotation Xrotation Yrotation
										JOINT LeftHandIndex2
										{
											OFFSET 5.48836 0.00000 0.00000
											CHANNELS 3 Zrotation Xrotation Yrotation
											JOINT LeftHandIndex3
											{
												OFFSET 3.01859 0.00000 0.00000
												CHANNELS 3 Zrotation Xrotation Yrotation
												End site
												{
													OFFSET 0.00000 0.00000 0.00000
												}
											}
										}
									}
									JOINT LeftHandMiddle1
									{
										OFFSET 14.26970 0.00000 -0.09147
										CHANNELS 3 Zrotation Xrotation Yrotation
										JOINT LeftHandMiddle2
										{
											OFFSET 6.17440 0.00000 0.00000
											CHANNELS 3 Zrotation Xrotation Yrotation
											JOINT LeftHandMiddle3
											{
												OFFSET 3.56744 0.00000 0.00000
												CHANNELS 3 Zrotation Xrotation Yrotation
												End site
												{
													OFFSET 0.00000 0.00000 0.00000
												}
											}
										}
									}
									JOINT LeftHandRing1
									{
										OFFSET 12.69180 0.00000 -3.06433
										CHANNELS 3 Zrotation Xrotation Yrotation
										JOINT LeftHandRing2
										{
											OFFSET 5.62556 0.00000 0.00000
											CHANNELS 3 Zrotation Xrotation Yrotation
											JOINT LeftHandRing3
											{
												OFFSET 3.56744 0.00000 0.00000
												CHANNELS 3 Zrotation Xrotation Yrotation
												End site
												{
													OFFSET 0.00000 0.00000 0.00000
												}
											}
										}
									}
									JOINT LeftHandPinky1
									{
										OFFSET 11.11390 0.00000 -6.03719
										CHANNELS 3 Zrotation Xrotation Yrotation
										JOINT LeftHandPinky2
										{
											OFFSET 4.52789 0.00000 0.00000
											CHANNELS 3 Zrotation Xrotation Yrotation
											JOINT LeftHandPinky3
											{
												OFFSET 2.46976 0.00000 0.00000
												CHANNELS 3 Zrotation Xrotation Yrotation
												End site
												{
													OFFSET 0.00000 0.00000 0.00000
												}
											}
										}
									}
								}
							}
						}
					}
					JOINT pCube4
					{
						OFFSET 0.00000 10.91090 1.10792
						CHANNELS 3 Zrotation Xrotation Yrotation
						End site
						{
							OFFSET 0.00000 0.00000 0.00000
						}
					}
				}
			}
		}
	}
	JOINT RightUpLeg
	{
		OFFSET -9.98441 0.00000 0.00000
		CHANNELS 3 Zrotation Xrotation Yrotation
		JOINT RightLeg
		{
			OFFSET 0.00000 -42.11790 0.00000
			CHANNELS 3 Zrotation Xrotation Yrotation
			JOINT RightFoot
			{
				OFFSET 0.00000 -45.00020 -0.00001
				CHANNELS 3 Zrotation Xrotation Yrotation
				JOINT RightForeFoot
				{
					OFFSET 0.00000 -3.74820 0.00000
					CHANNELS 3 Zrotation Xrotation Yrotation
					JOINT RightToeBase
					{
						OFFSET 0.00000 0.06325 14.43120
						CHANNELS 3 Zrotation Xrotation Yrotation
						End site
						{
							OFFSET 0.00000 0.00000 0.00000
						}
					}
				}
			}
		}
	}
	JOINT LeftUpLeg
	{
		OFFSET 9.98441 0.00000 0.00000
		CHANNELS 3 Zrotation Xrotation Yrotation
		JOINT LeftLeg
		{
			OFFSET 0.00000 -42.11800 0.00000
			CHANNELS 3 Zrotation Xrotation Yrotation
			JOINT LeftFoot
			{
				OFFSET 0.00000 -45.00070 0.00000
				CHANNELS 3 Zrotation Xrotation Yrotation
				JOINT LeftForeFoot
				{
					OFFSET 0.00000 -3.74824 0.00000
					CHANNELS 3 Zrotation Xrotation Yrotation
					JOINT LeftToeBase
					{
						OFFSET 0.00000 0.06325 14.43110
						CHANNELS 3 Zrotation Xrotation Yrotation
						End site
						{
							OFFSET 0.00000 0.00000 0.00000
						}
					}
				}
			}
		}
	}
}
MOTION
Frames: 4
Frame Time: 0.050000
-0.028304093305782287 -0.021247244774134585 -0.012775679418156044 -0.028337367694165668 -0.041324942399245466 0.03839406242913853 5.883171412109542 3.031449204689115 -2.3236379994583634 -0.7037163630005298 3.428088167710632 0.37539528913216624 -0.5377602509147905 -1.0301131654947708 0.598725146969129 -0.2588120348416972 -0.4727818358781994 -0.3044112690605678 0.2316290233781188 11.31612324826416 -1.6606550559233249 0.3989921943480329 -0.6502902128765704 -3.195317469023619 0.9934732732668399 -16.93727604151069 -0.3193491393942748 -9.253163641303804 3.3188889912632593 -18.832541441005873 80.41615472952203 1.581895529111046 -3.4313034655621815 0.5746975653482753 7.626123608378568 56.17390439525312 17.583871937389603 -0.3662639168374342 -2.895871068649333 4.503069040017868 -0.12978031495858663 -1.6119775874985374 0.019268816521585515 -0.027379628034976268 -56.247458415120676 0.031005624203278667 -0.004150312557957438 -56.24781852126144 -38.76507619097233 -0.013162061985379517 0.04360896695851937 0.036873556740311876 -0.015904047829286845 0.047943760226160176 -0.028163949400488636 -0.01627445375260484 -0.005441114275050821 -36.69804663673171 0.003950954693885349 0.0361247627896755 0.037237592387330425 0.019922551175473327 0.027872530022639192 -0.0019200551192513876 0.0011506554260241008 -0.02697661651317173 -19.76527384012073 -0.002315781100105183 -0.005428754029506225 0.00789078725457439 -0.04596548076419792 0.035090568406919265 0.044632585929777514 0.04069082982681941 -0.015855975782887683 24.083412230921365 -0.027255204405798355 -0.0004207235687717529 28.835776036267564 -0.03812642667658584 0.009870671513820114 28.826283256423167 -0.007580674797124423 -0.04939361195166761 8.674424120856486 2.254282485788608 15.43024013862699 -75.70826417666035 15.322785908957345 -5.615206218960626 3.212893212200674 8.294539358965704 -44.55853009427287 -20.00343102406369 -0.1640512617816172 1.0921559066150406 -0.5023871152669279 0.06867896349863065 -8.113286947251902 0.0010189021299236026 -0.027063523934736138 44.5666564488713 -0.02007253490241396 0.004905495459961732 44.5544347955249 12.443052594112848 0.029608590181512604 -0.021584175860895314 -0.023755167748551152 0.03206767627226819 0.008467859706319162 0.025785250742935178 0.020063363238625915 0.03403732099672415 11.09900713700603 -0.02837606977100055 -0.005487367562063175 0.028918153684666843 0.037592435010448 -0.03877856805172444 0.015013104433214703 -0.027375757203200176 -0.049189321319431316 4.791600335903611 0.0344940348704791 0.02373737403390357 0.017167455555562348 0.04023279228500249 0.036151414472517206 0.024467089057745337 0.017518406390864997 0.004707384987735802 -5.572359977892158 0.04840359295711656 0.032369635668616434 -6.764739986504904 0.028648452769292176 -0.025904333371044464 -6.75304670786596 -0.03723095928740272 -0.0384081462853582 -0.02477325926492896 0.00430552701956944 -0.021938467899488324 8.013415845021743 3.5065510850830646 -19.211790254813337 0.029418144390816976 10.37065518373178 0.05919826692955704 -5.663100356539305 -15.65138577377937 3.185004361484663 -0.04610337886337936 0.013305473269627551 0.04285587668023358 0.028041075133380836 4.665801509609111 0.011925959292629285 12.495430021600878 -8.278712433397937 6.913920430517921 0.03359279697556696 46.347257851472165 0.041999810031650445 -4.287102157818153 -14.763187430212298 -3.8802264922263072 -0.005350808301040452 0.011414536920960908 -0.03879447194353342 0.027015259238917008 -10.783752258546414 0.02684904519085894 
-0.013049752573994112 -0.021042072420364866 0.016597939499558734 -0.044425924832762226 -0.03920863044798225 -0.011335624672668009 5.790776522338217 2.9866081403940794 -2.396455589618424 -0.7188045731832745 3.4247540634766525 0.3501474083770987 -0.5581738624588144 -1.0313021641186872 0.6236029924383856 -0.26792695720758997 -0.466917440291882 -0.3151861888518901 0.1739365665081205 11.507361199487471 -1.7509918899912755 0.4290510958753015 -0.61663607645987 -3.2712986619286903 1.02240583671849 -16.933675538002312 -0.3041703427882466 -9.445594958254466 3.3235531307439348 -18.977073376864645 79.33217759257224 1.1848104329837783 -3.4506376511582033 1.5833171865028115 7.320350012830964 59.108830959591934 17.29560051212037 -0.35452201958577845 -2.9663948969978806 4.555433816569726 -0.16839654329679224 -1.5855427474730754 -0.04851132169175614 0.033707438721005324 -56.25012085277019 0.007841651368520277 -0.00546267270540854 -56.204141701599156 -38.778179417772115 0.048464032259372625 -0.0176658181242525 -0.02512515041114779 -0.03925068635889337 0.039190461031221036 0.03148716376324212 -0.004090916406394042 -0.0006038943159907393 -36.70189297363383 0.005973047829864097 0.023505245198049047 -0.04365737241323841 0.016447852139373383 -0.01178720456397397 -0.0174049204726662 0.009542771833413762 0.03011902861814603 -19.713461589631045 0.025877775021464433 0.009215543275489875 0.014139074417078542 0.014081906633011333 -0.0021459893068159503 -0.014036365980962943 -0.018441237046475684 0.011570088189108846 24.03751949855871 0.0005372849652284321 -0.015900284042393322 28.81635903013078 0.010793584848665832 -0.03997893158089242 28.87681323269691 -0.02448928736858891 0.019291140078175114 8.810968111181761 2.2783698219839157 15.590187202729682 -75.05233536813643 14.365382075507581 -5.60208432400148 2.415555061511073 8.231271655006935 -45.53595525640067 -19.862060037618633 -0.2680965710565516 0.9194886353449506 -0.43395119503841056 0.04188353779953298 -8.076605717414752 -0.01274251940446546 -0.04809195408136562 44.58359463021515 -0.048069810176103255 -0.012067343841548289 44.5840222646669 12.469350989786966 -0.013023643812612465 -0.008294509290234823 -0.013299872947943868 0.020807182727166862 0.015345466771476645 0.030059937615025196 -0.04172692638812373 0.029456492232430513 11.104190175125757 -0.01427762835478171 -0.0028733210953591653 0.03876188098162415 -0.005427933039630317 0.005704354020040459 0.012624550740593375 0.0008695906959213595 0.003707550723789737 4.7729387221197594 0.030376798793773 0.02287962829958846 -0.02567981264888519 0.0192039656549595 -0.005535998449596286 -0.01647135814259286 0.04960564496946227 -0.004893636594046743 -5.6341810934923355 0.044958462115126094 0.026987091892426537 -6.715792454931102 0.005369083699631932 0.0252324253482903 -6.738373124457449 0.023013679929452403 -0.03906936921825556 0.012535360838439752 0.0006275090154395351 -0.024881665169100665 8.06674283729488 3.4814889904432347 -19.261294569545175 0.02930884862132441 10.3750888966344 -0.020006251845071783 -5.6467616876494064 -15.62677072373383 3.2237819614521688 0.04585850723167475 -0.01078458795340694 -0.03825170159300798 0.013598619844633626 4.697173900137962 -0.03440698692835973 12.456246739370219 -8.271915919145743 6.855582440684829 -0.03745054790312766 46.378973610872166 -0.033551907582332494 -4.29470151390028 -14.786834668022493 -3.8092193754873156 -0.0004096405968940661 0.021290472229695597 0.037882640722601266 0.006774158558187569 -10.707773752253889 0.03177012233608119 
0.02035765394565951 0.02493199799855454 -0.025510645766319052 -0.019804631196926888 0.011774862353961909 0.018861369777196144 5.572553627617393 2.9562417607541653 -2.3396833464914177 -0.7068564129496439 3.509037181960995 0.4282084172282406 -0.5507587622172032 -1.0994504875594528 0.7695685422391664 -0.2751415763933649 -0.4809025867027426 -0.2405110585526957 0.23093947038020907 11.771291753414836 -1.7781347958681293 0.43341759169065486 -0.5879665806164988 -3.428739074587377 1.0850175725709923 -16.98035304267679 -0.3100683329852642 -9.682579357562961 3.3899462754780307 -18.98574756539642 78.05293724831041 0.7643313240917735 -2.9398326300870616 3.3276219168786576 7.0092659972546665 63.93391050467873 17.071720414294646 -0.4399032267844191 -3.3519199686213392 4.495164141456569 -0.1465028718595242 -1.6129557013818954 0.02177665926221011 -0.023803759808801603 -56.269411907238634 -0.03394379115502842 0.014861878459681191 -56.244754183091594 -38.8084653153668 0.020890802156058156 -0.025052549887669362 0.034338872530377464 0.011401108954675469 -0.00402257999621907 0.010649488495391992 -0.00788354559298929 0.014897473176785858 -36.701198582256026 -0.02627737165318871 0.02656070538229717 0.01649924300413869 0.02295883895204672 0.024674315391979344 -0.0012018469877696143 0.024093510246428376 0.023369735063473104 -19.718044076844333 0.023453106996856418 -0.019235438044161397 0.009132621060531865 -0.016742186815386226 -0.032142957656384655 0.013686837455025256 -0.026096357950052804 0.0044193150913064815 24.055170640885365 0.04967547362288768 0.03343173422965928 28.87590769272797 -0.04732197988924 -0.028300535380524388 28.914519285929213 0.027182672433879045 -0.00184531601848669 8.965854891590013 2.272350977296394 15.766129666853342 -74.45009106906191 13.698431241642936 -5.682654547114544 1.3383002427253783 8.146489742905139 -46.71638230668379 -19.877203950066843 -0.22303648150827837 0.7265817091947459 -0.48167867459435393 0.07723880382902124 -8.091851180264067 0.04338802635775261 -0.012152799527142969 44.52477688568308 0.006052030589044988 0.02349155105478774 44.52569999358751 12.469534371176227 0.00047011066706486047 -0.0318535133364641 0.02778713650205855 -0.011760285022976841 -0.016428629537103636 -0.04280644112068839 0.03754752328201023 -0.01391835389780876 11.128127574562344 0.0477564900305516 -0.01735425890054984 0.03673208114424079 0.03129662102221622 -0.0357478039068844 -0.048403064188535655 0.028551397082332786 0.01000169171923662 4.741332771327993 -0.0127165515924557 0.04356635610535387 0.03203960822357022 -0.0031362224073179863 0.03269472540592167 -0.038323408672477466 -0.0021570258207043477 0.0015183760744485512 -5.595045007805826 -0.004791985327754761 0.020569749559693387 -6.706110912557147 0.010356622726324673 -0.02092107766503915 -6.7630178320366845 0.01159480008599505 0.018090934395587215 0.024859896796301535 0.02010944177792837 -0.012268624392037459 8.030185020326954 3.5202131064405524 -19.213547194540087 -0.03884219257943419 10.419224854052008 -0.01396203195382319 -5.635794627809268 -15.704625522302354 3.1734247219808274 0.002076735628054449 -0.021023575114411257 0.021867896288340048 0.0193216172356184 4.68497775270318 -0.01951305643390774 12.458493389290215 -8.220149966876951 6.914682428817566 -0.03673199498584904 46.42178796985359 0.04586954342001284 -4.308000837020186 -14.761448724169407 -3.807938739071338 -0.004445490930188752 -0.02313639496018781 0.004293928727025738 0.022668069002029737 -10.714254064752755 -0.02699784413847118 
-0.034894900107496914 0.027700500966899945 0.04936577345051188 0.023207279011188048 0.04687948042967349 -0.04951829211047491 5.353472959323552 3.019682063535182 -2.3296901340761598 -0.7449738853173764 3.500690279136671 0.36244491935421197 -0.5701356243693136 -1.0872202443434262 0.7726230019823676 -0.3519160551405474 -0.43787911254091877 -0.24620183848495236 0.23308441067539087 11.934978536163614 -1.7575539276701952 0.4817224453963445 -0.6322783066228935 -3.617150044650268 1.0887050652619992 -17.002717724756344 -0.3214747490379538 -9.745014397931723 3.3619330771258524 -19.075215510697443 76.9000065576532 0.39664782023753226 -1.9776357366875286 5.143327879013267 6.815495513865268 68.77058371559296 17.253010540029923 -0.44958355394546967 -3.8368705463994424 4.506894420035336 -0.1712249213416896 -1.5567361326705547 -0.009515781147500948 -0.027707259765256727 -56.25029480966887 0.0040634433340708456 0.02422121924550142 -56.19852476442516 -38.75371344241549 0.005867636781117376 -0.02416454900874943 0.03807699245579725 -0.03097796369475832 0.03305501558485633 -0.0418833225670433 -0.021035625967840144 -0.034763827062137674 -36.71657972489263 0.033452714333779686 -0.012956377928411065 0.027907762989438454 -0.02496739429663007 -0.024892840451299126 -0.0014425437320361534 -0.02366496926556501 -0.02139384331230407 -19.76193380431931 0.03587693247416549 -0.015501684121182977 -0.021934527491372566 0.015091960204749552 0.02301637189892315 -0.029974095842398754 0.0015791357842282314 -0.0040169189107485265 24.089902838792902 -0.02730263153123504 0.026785924466709545 28.851781957418797 0.047159270992423785 -0.010009547773418795 28.824804232897314 -0.0062462604010003996 -0.013266285546259565 9.077755284344581 2.2582328751077116 15.86905637471245 -74.03987036219051 13.25996729865063 -5.809027565492642 0.36887829868842703 8.291322514573878 -47.43353404319487 -20.00242427941735 0.003616538069802561 0.5203327585235814 -0.4358002712091855 0.019830668841567416 -8.089084076683594 -0.0426676620663795 -0.048691877897213416 44.58411750549083 -0.047487529463726474 -0.006167963100038574 44.60041810172642 12.439443436350052 -0.013782618604111773 0.010281142911006205 -0.03870053907299539 0.026828915983404138 -0.006630462355597305 -0.020186588112549936 0.013595856584058688 -0.0038809129096172854 11.089777703766595 0.0034583909543313427 0.026595011651404373 0.006087385255487472 0.031128313455367474 0.04751371152066487 -0.03129288517517386 -0.045949054537138295 -0.013176165779963145 4.820933296024225 -0.02164036260191931 -0.01632130285632308 -0.018533302567198463 -0.03481471091229477 -0.03090995546980678 0.020448019723404404 -0.016419462811191103 -0.019979892077100964 -5.558202821917187 0.016235675672795224 0.02672473813847112 -6.69872335925957 0.019462345510063168 0.03386372738488551 -6.759661122594638 0.03231503905719692 0.01189915434916282 0.011662559329331777 0.015756955955342388 0.037497778058967327 8.07533794129696 3.513299658768163 -19.177438553062874 0.02655030928148525 10.409139811774647 -0.03328985651195723 -5.595682811151454 -15.67736553769401 3.1964249501021076 -0.011639444658141197 -0.02218453130432191 0.029741241615941327 -0.027324630080640268 4.657699666454579 0.0027469454773831063 12.417076599373411 -8.221497693757788 6.839035502053011 0.012436072631779349 46.37137949865238 -0.0011883805522153667 -4.303585604179402 -14.77797995143614 -3.7930684071282736 -0.042833677813898234 0.04175270586161625 -0.03949917393859889 -0.025951587520293112 -10.726871744031401 0.03241558338670291 
